<svg width="74" height="8" viewBox="0 0 74 8" fill="none" xmlns="http://www.w3.org/2000/svg">
<mask id="path-1-inside-1" fill="white">
<path d="M69.9511 3.76225C69.0588 5.46767 68.2159 7.07726 66.5911 7.07726C64.9674 7.07726 64.1244 5.46645 63.2321 3.76225C62.2648 1.91307 61.2642 0 59.1847 0C57.1062 0 56.1056 1.91307 55.1393 3.76225C54.2471 5.46645 53.4052 7.07726 51.7825 7.07726C50.161 7.07726 49.3202 5.46767 48.429 3.76348C47.4637 1.91307 46.4632 0.00122801 44.3858 0.00122801C42.3074 0.00122801 41.3078 1.9143 40.3415 3.76348C39.4503 5.46767 38.6084 7.07726 36.9869 7.07726C35.3653 7.07726 34.5234 5.46645 33.6333 3.76225C32.667 1.91307 31.6664 0 29.5891 0C27.5117 0 26.5111 1.91307 25.5448 3.76225C24.6536 5.46645 23.8128 7.07603 22.1912 7.07603C20.5697 7.07603 19.7289 5.46645 18.8376 3.76225C17.8714 1.91185 16.8707 0 14.7934 0C12.7171 0 11.7176 1.91307 10.7513 3.76225C9.86115 5.46645 9.01927 7.07726 7.39878 7.07726C5.77722 7.07726 4.93534 5.46645 4.04412 3.76225C3.07677 1.91307 2.07723 0 -0.00012207 0V0.921517C1.62144 0.921517 2.46332 2.53233 3.35453 4.23652C4.32189 6.0857 5.32142 7.99877 7.39878 7.99877C9.47614 7.99877 10.4746 6.0857 11.442 4.23652C12.3321 2.53233 13.174 0.922745 14.7934 0.922745C16.415 0.922745 17.2568 2.53356 18.147 4.23776C19.1133 6.08694 20.1128 8 22.1912 8C24.2697 8 25.2681 6.08694 26.2355 4.23776C27.1267 2.53356 27.9675 0.922745 29.5891 0.922745C31.2106 0.922745 32.0525 2.53356 32.9426 4.23776C33.9089 6.08694 34.9095 8 36.9869 8C39.0642 8 40.0638 6.08694 41.0311 4.23776C41.9223 2.53356 42.7642 0.922745 44.3869 0.922745C46.0084 0.922745 46.8492 2.53233 47.7404 4.23652C48.7057 6.08693 49.7063 7.99877 51.7836 7.99877C53.862 7.99877 54.8627 6.0857 55.8289 4.23652C56.7212 2.53233 57.5631 0.921517 59.1857 0.921517C60.8094 0.921517 61.6524 2.53233 62.5447 4.23652C63.512 6.0857 64.5127 7.99877 66.5922 7.99877C68.6717 7.99877 69.6733 6.0857 70.6407 4.23652C71.533 2.53233 72.3759 0.922745 73.9996 0.922745V0.00122801C71.9201 -6.74976e-07 70.9185 1.91307 69.9511 3.76225Z"/>
</mask>
<path d="M69.9511 3.76225C69.0588 5.46767 68.2159 7.07726 66.5911 7.07726C64.9674 7.07726 64.1244 5.46645 63.2321 3.76225C62.2648 1.91307 61.2642 0 59.1847 0C57.1062 0 56.1056 1.91307 55.1393 3.76225C54.2471 5.46645 53.4052 7.07726 51.7825 7.07726C50.161 7.07726 49.3202 5.46767 48.429 3.76348C47.4637 1.91307 46.4632 0.00122801 44.3858 0.00122801C42.3074 0.00122801 41.3078 1.9143 40.3415 3.76348C39.4503 5.46767 38.6084 7.07726 36.9869 7.07726C35.3653 7.07726 34.5234 5.46645 33.6333 3.76225C32.667 1.91307 31.6664 0 29.5891 0C27.5117 0 26.5111 1.91307 25.5448 3.76225C24.6536 5.46645 23.8128 7.07603 22.1912 7.07603C20.5697 7.07603 19.7289 5.46645 18.8376 3.76225C17.8714 1.91185 16.8707 0 14.7934 0C12.7171 0 11.7176 1.91307 10.7513 3.76225C9.86115 5.46645 9.01927 7.07726 7.39878 7.07726C5.77722 7.07726 4.93534 5.46645 4.04412 3.76225C3.07677 1.91307 2.07723 0 -0.00012207 0V0.921517C1.62144 0.921517 2.46332 2.53233 3.35453 4.23652C4.32189 6.0857 5.32142 7.99877 7.39878 7.99877C9.47614 7.99877 10.4746 6.0857 11.442 4.23652C12.3321 2.53233 13.174 0.922745 14.7934 0.922745C16.415 0.922745 17.2568 2.53356 18.147 4.23776C19.1133 6.08694 20.1128 8 22.1912 8C24.2697 8 25.2681 6.08694 26.2355 4.23776C27.1267 2.53356 27.9675 0.922745 29.5891 0.922745C31.2106 0.922745 32.0525 2.53356 32.9426 4.23776C33.9089 6.08694 34.9095 8 36.9869 8C39.0642 8 40.0638 6.08694 41.0311 4.23776C41.9223 2.53356 42.7642 0.922745 44.3869 0.922745C46.0084 0.922745 46.8492 2.53233 47.7404 4.23652C48.7057 6.08693 49.7063 7.99877 51.7836 7.99877C53.862 7.99877 54.8627 6.0857 55.8289 4.23652C56.7212 2.53233 57.5631 0.921517 59.1857 0.921517C60.8094 0.921517 61.6524 2.53233 62.5447 4.23652C63.512 6.0857 64.5127 7.99877 66.5922 7.99877C68.6717 7.99877 69.6733 6.0857 70.6407 4.23652C71.533 2.53233 72.3759 0.922745 73.9996 0.922745V0.00122801C71.9201 -6.74976e-07 70.9185 1.91307 69.9511 3.76225Z" fill="white"/>
<path d="M69.9511 3.76225L71.7232 4.68943L71.7233 4.68932L69.9511 3.76225ZM63.2321 3.76225L61.46 4.68932L61.4603 4.68995L63.2321 3.76225ZM55.1393 3.76225L56.9112 4.68995L56.9119 4.68851L55.1393 3.76225ZM48.429 3.76348L46.6557 4.68845L46.6567 4.6903L48.429 3.76348ZM40.3415 3.76348L42.1138 4.69031L42.1141 4.68974L40.3415 3.76348ZM33.6333 3.76225L35.406 2.8363L35.4059 2.83599L33.6333 3.76225ZM25.5448 3.76225L27.3171 4.68908L27.3174 4.68851L25.5448 3.76225ZM18.8376 3.76225L17.0648 4.68803L17.0654 4.68908L18.8376 3.76225ZM10.7513 3.76225L8.97871 2.83599L8.97855 2.8363L10.7513 3.76225ZM4.04412 3.76225L5.81641 2.83543L5.81628 2.83518L4.04412 3.76225ZM-0.00012207 0V-2H-2.00012V0H-0.00012207ZM-0.00012207 0.921517H-2.00012V2.92152H-0.00012207V0.921517ZM3.35453 4.23652L1.58225 5.16334L1.58237 5.16359L3.35453 4.23652ZM11.442 4.23652L13.2141 5.16359L13.2147 5.16247L11.442 4.23652ZM18.147 4.23776L16.3742 5.16371L16.3744 5.16402L18.147 4.23776ZM26.2355 4.23776L28.0076 5.16482L28.0078 5.16458L26.2355 4.23776ZM32.9426 4.23776L31.1699 5.16371L31.1701 5.16402L32.9426 4.23776ZM41.0311 4.23776L42.8033 5.16482L42.8034 5.16458L41.0311 4.23776ZM47.7404 4.23652L49.5137 3.31155L49.5127 3.3097L47.7404 4.23652ZM55.8289 4.23652L54.0571 3.30882L54.0564 3.31026L55.8289 4.23652ZM62.5447 4.23652L64.3168 3.30945L64.3165 3.30882L62.5447 4.23652ZM70.6407 4.23652L68.8689 3.30882L68.8685 3.30945L70.6407 4.23652ZM73.9996 0.922745V2.92275H75.9996V0.922745H73.9996ZM73.9996 0.00122801H75.9996V-1.99759L74.0008 -1.99877L73.9996 0.00122801ZM68.179 2.83508C67.7031 3.74456 67.374 4.35138 67.0245 4.76093C66.7302 5.10574 66.6222 5.07726 66.5911 5.07726V9.07726C68.1847 9.07726 69.3106 8.24398 70.067 7.35764C70.7682 6.53605 71.3068 5.48537 71.7232 4.68943L68.179 2.83508ZM66.5911 5.07726C66.5614 5.07726 66.4537 5.10641 66.1589 4.76085C65.8091 4.35081 65.48 3.74379 65.004 2.83455L61.4603 4.68995C61.8765 5.48491 62.415 6.53539 63.1157 7.3568C63.8714 8.24269 64.997 9.07726 66.5911 9.07726V5.07726ZM65.0043 2.83518C64.5494 1.96567 63.9459 0.787188 63.1198 -0.141535C62.2264 -1.14603 60.9507 -2 59.1847 -2V2C59.4982 2 59.7625 2.10257 60.1311 2.5169C60.567 3.00701 60.9475 3.70966 61.46 4.68932L65.0043 2.83518ZM59.1847 -2C57.4189 -2 56.1434 -1.14571 55.2503 -0.141217C54.4244 0.787658 53.8213 1.96612 53.3668 2.83599L56.9119 4.68851C57.4237 3.70921 57.804 3.00654 58.2396 2.51659C58.608 2.10225 58.872 2 59.1847 2V-2ZM53.3675 2.83455C52.8912 3.74421 52.5624 4.35123 52.2127 4.76142C51.9181 5.10708 51.811 5.07726 51.7825 5.07726V9.07726C53.3767 9.07726 54.5019 8.24203 55.2569 7.35623C55.9569 6.53497 56.4952 5.48449 56.9112 4.68995L53.3675 2.83455ZM51.7825 5.07726C51.7547 5.07726 51.6482 5.10746 51.3543 4.76243C51.0053 4.35275 50.6769 3.74616 50.2013 2.83666L46.6567 4.6903C47.0723 5.48499 47.6099 6.53529 48.3095 7.35645C49.0641 8.24226 50.1888 9.07726 51.7825 9.07726V5.07726ZM50.2022 2.83851C49.7478 1.96729 49.1451 0.788783 48.3192 -0.140295C47.4262 -1.14489 46.1509 -1.99877 44.3858 -1.99877V2.00123C44.698 2.00123 44.9617 2.10327 45.3296 2.5172C45.7647 3.00665 46.1449 3.70927 46.6557 4.68845L50.2022 2.83851ZM44.3858 -1.99877C42.6199 -1.99877 41.3445 -1.14434 40.4517 -0.139675C39.6262 0.789162 39.0233 1.96773 38.569 2.83722L42.1141 4.68974C42.6261 3.71005 43.0061 3.0075 43.4416 2.5175C43.8096 2.10333 44.0733 2.00123 44.3858 2.00123V-1.99877ZM38.5693 2.83666C38.0939 3.74573 37.7651 4.35244 37.416 4.76205C37.1218 5.10724 37.015 5.07726 36.9869 5.07726V9.07726C38.5804 9.07726 39.7053 8.24248 40.4602 7.35683C41.1602 6.5356 41.698 5.48542 42.1138 4.6903L38.5693 2.83666ZM36.9869 5.07726C36.9594 5.07726 36.8527 5.10751 36.5584 4.762C36.2094 4.35221 35.8808 3.74523 35.406 2.8363L31.8606 4.6882C32.2759 5.48346 32.8134 6.53399 33.5132 7.35565C34.2678 8.24159 35.3928 9.07726 36.9869 9.07726V5.07726ZM35.4059 2.83599C34.9513 1.9661 34.3483 0.787744 33.5226 -0.14106C32.6299 -1.14539 31.3546 -2 29.5891 -2V2C29.9008 2 30.1646 2.10192 30.533 2.51643C30.9686 3.00646 31.349 3.70922 31.8607 4.68851L35.4059 2.83599ZM29.5891 -2C27.8235 -2 26.5482 -1.14539 25.6555 -0.14106C24.8299 0.787744 24.2268 1.9661 23.7722 2.83599L27.3174 4.68851C27.8291 3.70922 28.2095 3.00646 28.6451 2.51643C29.0135 2.10192 29.2773 2 29.5891 2V-2ZM23.7725 2.83543C23.2969 3.74494 22.9685 4.35153 22.6195 4.7612C22.3255 5.10623 22.2191 5.07603 22.1912 5.07603V9.07603C23.7849 9.07603 24.9097 8.24103 25.6643 7.35522C26.3639 6.53406 26.9015 5.48376 27.3171 4.68908L23.7725 2.83543ZM22.1912 5.07603C22.1634 5.07603 22.0569 5.10623 21.763 4.7612C21.414 4.35153 21.0856 3.74494 20.6099 2.83543L17.0654 4.68908C17.4809 5.48376 18.0186 6.53406 18.7181 7.35522C19.4728 8.24103 20.5975 9.07603 22.1912 9.07603V5.07603ZM20.6105 2.83648C20.1557 1.9656 19.5527 0.787172 18.7268 -0.141683C17.8338 -1.1461 16.5585 -2 14.7934 -2V2C15.1056 2 15.3693 2.10203 15.7375 2.51613C16.1729 3.0058 16.5533 3.7085 17.0648 4.68803L20.6105 2.83648ZM14.7934 -2C13.0279 -2 11.7531 -1.14491 10.8609 -0.140587C10.0359 0.788108 9.43307 1.96648 8.97871 2.83599L12.5239 4.68851C13.0358 3.70884 13.4159 3.00609 13.8513 2.51596C14.2195 2.10145 14.4826 2 14.7934 2V-2ZM8.97855 2.8363C8.5038 3.74522 8.17519 4.35232 7.82617 4.76219C7.53174 5.10796 7.42532 5.07726 7.39878 5.07726V9.07726C8.99273 9.07726 10.1175 8.24114 10.8717 7.35546C11.5712 6.53388 12.1086 5.48348 12.524 4.6882L8.97855 2.8363ZM7.39878 5.07726C7.37128 5.07726 7.26452 5.10752 6.96999 4.76181C6.62066 4.35177 6.29192 3.74471 5.81641 2.83543L2.27184 4.68908C2.68754 5.48399 3.22535 6.53443 3.92516 7.35584C4.67976 8.24159 5.80472 9.07726 7.39878 9.07726V5.07726ZM5.81628 2.83518C5.36161 1.96604 4.75841 0.78764 3.93319 -0.140902C3.04063 -1.14523 1.76562 -2 -0.00012207 -2V2C0.31149 2 0.574928 2.10177 0.943306 2.51627C1.37904 3.00656 1.75928 3.70929 2.27197 4.68932L5.81628 2.83518ZM-2.00012 0V0.921517H1.99988V0H-2.00012ZM-0.00012207 2.92152C0.0273806 2.92152 0.134142 2.89125 0.428671 3.23696C0.777999 3.647 1.10673 4.25406 1.58225 5.16334L5.12682 3.3097C4.71112 2.51479 4.1733 1.46435 3.4735 0.642929C2.71889 -0.242813 1.59394 -1.07848 -0.00012207 -1.07848V2.92152ZM1.58237 5.16359C2.03705 6.03273 2.64025 7.21113 3.46546 8.13968C4.35803 9.144 5.63304 9.99877 7.39878 9.99877V5.99877C7.08717 5.99877 6.82373 5.89701 6.45535 5.4825C6.01962 4.99221 5.63937 4.28948 5.12669 3.30945L1.58237 5.16359ZM7.39878 9.99877C9.16467 9.99877 10.4395 9.14386 11.3318 8.13936C12.1567 7.21086 12.7596 6.03234 13.2141 5.16359L9.6698 3.30945C9.15691 4.28987 8.77697 4.99249 8.34139 5.48282C7.97332 5.89715 7.71024 5.99877 7.39878 5.99877V9.99877ZM13.2147 5.16247C13.6893 4.25379 14.018 3.64692 14.3668 3.23738C14.6611 2.89186 14.7673 2.92275 14.7934 2.92275V-1.07725C13.2001 -1.07725 12.0757 -0.241582 11.3216 0.643744C10.6221 1.46504 10.0847 2.51506 9.66921 3.31057L13.2147 5.16247ZM14.7934 2.92275C14.8209 2.92275 14.9276 2.89249 15.2219 3.238C15.5709 3.64779 15.8995 4.25478 16.3742 5.16371L19.9197 3.31181C19.5043 2.51655 18.9669 1.46602 18.267 0.644355C17.5125 -0.241585 16.3874 -1.07725 14.7934 -1.07725V2.92275ZM16.3744 5.16402C16.8287 6.03351 17.4316 7.21207 18.2571 8.14091C19.15 9.14557 20.4253 10 22.1912 10V6C21.8787 6 21.6151 5.8979 21.247 5.48373C20.8115 4.99374 20.4315 4.29119 19.9196 3.3115L16.3744 5.16402ZM22.1912 10C23.9573 10 25.2324 9.14542 26.1251 8.14075C26.9501 7.21218 27.5532 6.03357 28.0076 5.16482L24.4633 3.31069C23.9504 4.29112 23.5705 4.99363 23.1349 5.48389C22.7669 5.89805 22.5036 6 22.1912 6V10ZM28.0078 5.16458C28.4835 4.25486 28.8119 3.64792 29.1611 3.23781C29.4554 2.89226 29.5618 2.92275 29.5891 2.92275V-1.07725C27.9948 -1.07725 26.87 -0.241363 26.1156 0.644548C25.4163 1.4659 24.8787 2.51646 24.4632 3.31093L28.0078 5.16458ZM29.5891 2.92275C29.6166 2.92275 29.7233 2.89248 30.0175 3.238C30.3666 3.64779 30.6951 4.25477 31.1699 5.16371L34.7154 3.31181C34.3 2.51655 33.7625 1.46602 33.0627 0.644356C32.3081 -0.241585 31.1831 -1.07725 29.5891 -1.07725V2.92275ZM31.1701 5.16402C31.6246 6.03391 32.2277 7.21227 33.0533 8.14107C33.9461 9.14539 35.2213 10 36.9869 10V6C36.6751 6 36.4114 5.89807 36.0429 5.48357C35.6073 4.99355 35.2269 4.29079 34.7152 3.3115L31.1701 5.16402ZM36.9869 10C38.7526 10 40.0276 9.14524 40.9202 8.14091C41.7454 7.21237 42.3486 6.03397 42.8033 5.16482L39.259 3.31069C38.7463 4.29072 38.366 4.99344 37.9303 5.48373C37.5619 5.89823 37.2985 6 36.9869 6V10ZM42.8034 5.16458C43.2789 4.25528 43.6076 3.64833 43.957 3.23839C44.2514 2.89293 44.3584 2.92275 44.3869 2.92275V-1.07725C42.7927 -1.07725 41.6675 -0.242028 40.9125 0.643972C40.2124 1.46548 39.6745 2.51604 39.2588 3.31093L42.8034 5.16458ZM44.3869 2.92275C44.4147 2.92275 44.5212 2.89254 44.8151 3.23757C45.1641 3.64725 45.4925 4.25384 45.9682 5.16334L49.5127 3.3097C49.0971 2.51501 48.5595 1.46471 47.86 0.643552C47.1053 -0.242261 45.9806 -1.07725 44.3869 -1.07725V2.92275ZM45.9672 5.16149C46.4216 6.03271 47.0243 7.21122 47.8502 8.1403C48.7432 9.14489 50.0185 9.99877 51.7836 9.99877V5.99877C51.4714 5.99877 51.2077 5.89673 50.8398 5.4828C50.4047 4.99335 50.0245 4.29073 49.5137 3.31155L45.9672 5.16149ZM51.7836 9.99877C53.5494 9.99877 54.8249 9.14448 55.718 8.13999C56.5439 7.21111 57.147 6.03266 57.6015 5.16278L54.0564 3.31026C53.5446 4.28956 53.1643 4.99223 52.7287 5.48219C52.3603 5.89652 52.0963 5.99877 51.7836 5.99877V9.99877ZM57.6008 5.16422C58.077 4.25457 58.4059 3.64754 58.7555 3.23735C59.0502 2.8917 59.1573 2.92152 59.1857 2.92152V-1.07848C57.5916 -1.07848 56.4664 -0.243257 55.7114 0.642542C55.0113 1.4638 54.4731 2.51428 54.0571 3.30882L57.6008 5.16422ZM59.1857 2.92152C59.2154 2.92152 59.3231 2.89236 59.6179 3.23792C59.9677 3.64796 60.2968 4.25498 60.7729 5.16422L64.3165 3.30882C63.9003 2.51387 63.3618 1.46339 62.6611 0.64197C61.9054 -0.243919 60.7798 -1.07848 59.1857 -1.07848V2.92152ZM60.7725 5.16359C61.2274 6.0331 61.8309 7.21158 62.657 8.14031C63.5505 9.1448 64.8262 9.99877 66.5922 9.99877V5.99877C66.2786 5.99877 66.0143 5.89621 65.6458 5.48187C65.2098 4.99176 64.8293 4.28911 64.3168 3.30945L60.7725 5.16359ZM66.5922 9.99877C68.358 9.99877 69.6339 9.14495 70.5276 8.14062C71.354 7.21186 71.9578 6.03349 72.4128 5.16359L68.8685 3.30945C68.3562 4.28872 67.9755 4.99148 67.5394 5.48155C67.1705 5.89606 66.9058 5.99877 66.5922 5.99877V9.99877ZM72.4125 5.16422C72.8885 4.25519 73.2176 3.64852 73.5672 3.23891C73.8616 2.89386 73.9694 2.92275 73.9996 2.92275V-1.07725C72.4061 -1.07725 71.2806 -0.243581 70.5246 0.642209C69.8237 1.46344 69.2852 2.51366 68.8689 3.30882L72.4125 5.16422ZM75.9996 0.922745V0.00122801H71.9996V0.922745H75.9996ZM74.0008 -1.99877C72.2346 -1.99982 70.9583 -1.14622 70.0644 -0.141856C69.2378 0.786833 68.634 1.96532 68.1789 2.83518L71.7233 4.68932C72.2356 3.71 72.6163 3.00737 73.0523 2.51753C73.4209 2.10337 73.6852 2.00104 73.9985 2.00123L74.0008 -1.99877Z" fill="white" mask="url(#path-1-inside-1)"/>
</svg>
